<?xml version="1.0" encoding="UTF-8" standalone="no"?>
<svg
   id="van"
   width="1000"
   height="1000"
   viewBox="0 0 1000 1000"
   version="1.1"
   sodipodi:docname="Fiksukuljetuslogo1_21_vaasa_kuusikulmiotaustalla.svg"
   inkscape:export-filename="Fiksukuljetuslogo1_21_vaasa_kuusikulmiotaustalla.png"
   inkscape:export-xdpi="96"
   inkscape:export-ydpi="96"
   inkscape:version="1.2.2 (732a01da63, 2022-12-09)"
   xmlns:inkscape="http://www.inkscape.org/namespaces/inkscape"
   xmlns:sodipodi="http://sodipodi.sourceforge.net/DTD/sodipodi-0.dtd"
   xmlns="http://www.w3.org/2000/svg"
   xmlns:svg="http://www.w3.org/2000/svg">
  <sodipodi:namedview
     id="namedview30"
     pagecolor="#636363"
     bordercolor="#000000"
     borderopacity="0.25"
     inkscape:showpageshadow="2"
     inkscape:pageopacity="0"
     inkscape:pagecheckerboard="0"
     inkscape:deskcolor="#d1d1d1"
     showgrid="false"
     inkscape:zoom="0.72619865"
     inkscape:cx="428.94599"
     inkscape:cy="518.45318"
     inkscape:window-width="2560"
     inkscape:window-height="1336"
     inkscape:window-x="-8"
     inkscape:window-y="-8"
     inkscape:window-maximized="1"
     inkscape:current-layer="van"
     showguides="true">
    <inkscape:grid
       type="xygrid"
       id="grid1055" />
    <sodipodi:guide
       position="107.10808,500.48685"
       orientation="0,-1"
       id="guide1057"
       inkscape:locked="false" />
    <sodipodi:guide
       position="499.51315,807.05715"
       orientation="1,0"
       id="guide1059"
       inkscape:locked="false" />
  </sodipodi:namedview>
  <defs
     id="defs19">
    <style
       id="style17">
      .cls-1 {
        fill: #fff;
      }

      .cls-1, .cls-2, .cls-3, .cls-4, .cls-5, .cls-6 {
        fill-rule: evenodd;
      }

      .cls-2 {
        fill: none;
        stroke: #1c3585;
        stroke-width: 25px;
      }

      .cls-3, .cls-4, .cls-6 {
        fill: #1c3585;
      }

      .cls-3, .cls-4 {
        stroke: #fff;
        stroke-width: 7px;
      }

      .cls-3 {
        stroke-linejoin: round;
      }

      .cls-5 {
        fill: red;
      }
    </style>
  </defs>
  <path
     id="Polygon_1"
     data-name="Polygon 1"
     class="cls-1"
     d="M 997.735,746.806 499.542,993.606 1.35,746.806 v -493.6 L 499.542,6.41 997.735,253.21 v 493.6 z" />
  <path
     id="Polygon_1-2"
     data-name="Polygon 1"
     class="cls-2"
     d="M 972.152,734.121 499.536,968.243 26.92,734.121 V 265.879 L 499.536,31.757 972.152,265.879 Z" />
  <path
     class="cls-3"
     d="m 699.783,936.342 -112.347,0.071 H 297.489 V 768.13 h 289.947 v 30.7 c 0,0 24.538,-2.523 40.713,7.888 16.175,10.411 15.261,55.449 28.407,55.333 50.954,-0.451 45.691,72.884 43.227,74.291 z M 592.9,815.368 l 26.4,1.948 13.7,40.101 -40.1,0.007 z"
     id="path23" />
  <path
     id="Ellipse_1_copy"
     data-name="Ellipse 1 copy"
     class="cls-4"
     d="m 383.033,904.948 a 31.269,31.269 0 1 1 -31.269,31.269 31.269,31.269 0 0 1 31.269,-31.269 z m 229.987,0.764 a 31.269,31.269 0 1 1 -31.269,31.269 31.269,31.269 0 0 1 31.269,-31.269 z" />
  <path
     id="Fiksukuljetus.com"
     class="cls-5"
     d="M 92.668,431.351 H 65.013 v -16.368 h 30.44 v -13.241 h -47.59 v 71.141 h 17.15 v -28.339 h 27.655 z m 27.092,-15.39 h -16.466 v 56.922 h 16.466 z m 43.167,56.922 h 19.4 l -19.2,-31.564 19.153,-25.358 h -20.77 l -15.147,22.524 v -22.524 h -16.514 v 56.922 h 16.514 v -14.658 l 0.2,0.635 5.374,-5.326 z m 52.988,-11.989 a 7.225,7.225 0 0 1 -4.642,1.337 q -5.326,0 -7.6,-1.748 -2.274,-1.748 -2.272,-6.118 H 184.84 a 17.069,17.069 0 0 0 3.151,10.334 19.856,19.856 0 0 0 8.966,6.645 35.368,35.368 0 0 0 13.192,2.32 q 10.651,0 16.759,-4.519 a 14.525,14.525 0 0 0 6.108,-12.337 q 0,-7.721 -4.96,-12.142 -4.96,-4.421 -17.125,-6.966 a 23.525,23.525 0 0 1 -6.816,-2.589 4.069,4.069 0 0 1 -1.93,-3.518 4.356,4.356 0 0 1 1.906,-3.494 7.859,7.859 0 0 1 4.983,-1.49 8.035,8.035 0 0 1 5.5,1.906 5.852,5.852 0 0 1 2.174,4.544 h 16.512 a 15.333,15.333 0 0 0 -6.6,-13.07 q -6.6,-4.812 -17.736,-4.813 a 28.589,28.589 0 0 0 -11.311,2.174 18.553,18.553 0 0 0 -7.965,6.108 14.717,14.717 0 0 0 -2.858,8.868 17.866,17.866 0 0 0 1.173,6.84 12.226,12.226 0 0 0 3.664,4.862 22.915,22.915 0 0 0 6.328,3.493 74.481,74.481 0 0 0 9.478,2.785 q 5.644,1.32 7.891,2.876 a 4.8,4.8 0 0 1 2.248,4.134 4.356,4.356 0 0 1 -1.657,3.578 z m 58.7,-44.933 v 36.458 q 0,4.589 -1.93,6.565 -1.93,1.976 -6.083,1.977 -4.056,0 -6.107,-1.977 -2.051,-1.977 -2.053,-6.565 v -36.458 h -16.559 v 36.791 q 0.1,9.675 6.669,15.293 6.569,5.618 18.054,5.619 11.678,0 18.127,-5.594 6.449,-5.594 6.45,-15.66 v -36.449 h -16.564 z m 58.8,56.922 h 19.4 l -19.2,-31.564 19.153,-25.358 H 332 l -15.146,22.524 v -22.524 h -16.511 v 56.922 h 16.515 v -14.658 l 0.195,0.635 5.375,-5.326 z m 56.066,-56.922 v 36.458 q 0,4.589 -1.93,6.565 -1.93,1.976 -6.083,1.977 -4.056,0 -6.107,-1.977 -2.051,-1.977 -2.052,-6.565 v -36.458 h -16.558 v 36.791 q 0.1,9.675 6.67,15.293 6.57,5.618 18.053,5.619 11.678,0 18.128,-5.594 6.45,-5.594 6.449,-15.66 v -36.449 h -16.564 z m 42.239,0 h -16.509 v 56.922 h 41.238 v -12.7 h -24.723 v -44.222 z m 55.138,36.6 q 0,4.491 -1.075,6.443 a 3.794,3.794 0 0 1 -3.616,1.952 q -2.931,0 -4.128,-1.71 a 9.5,9.5 0 0 1 -1.2,-5.375 h -16.555 q 0,9.684 5.643,14.737 5.643,5.053 16.246,5.051 9.236,0 15.22,-5.838 5.984,-5.838 5.986,-15.22 v -36.64 h -16.515 v 36.6 z m 64.519,-15.449 h -22.372 v -8.453 h 26.775 v -12.7 h -43.29 v 56.922 h 43.046 v -12.7 h -26.531 v -10.36 h 22.378 v -12.7 z m 59.73,-21.156 h -52.28 v 12.7 h 17.59 v 44.219 h 16.563 v -44.211 h 18.127 v -12.7 z m 39.258,0 v 36.458 q 0,4.589 -1.93,6.565 -1.93,1.976 -6.083,1.977 -4.056,0 -6.107,-1.977 -2.051,-1.977 -2.052,-6.565 v -36.453 h -16.558 v 36.791 q 0.1,9.675 6.669,15.293 6.569,5.618 18.054,5.619 11.678,0 18.127,-5.594 6.449,-5.594 6.45,-15.66 v -36.449 h -16.564 z m 55.48,44.933 a 7.223,7.223 0 0 1 -4.642,1.337 q -5.325,0 -7.6,-1.748 -2.275,-1.748 -2.272,-6.118 h -16.555 a 17.069,17.069 0 0 0 3.152,10.334 19.858,19.858 0 0 0 8.965,6.645 35.373,35.373 0 0 0 13.193,2.32 q 10.65,0 16.759,-4.519 a 14.526,14.526 0 0 0 6.107,-12.337 q 0,-7.721 -4.959,-12.142 -4.959,-4.421 -17.126,-6.961 a 23.549,23.549 0 0 1 -6.816,-2.589 4.069,4.069 0 0 1 -1.93,-3.518 4.358,4.358 0 0 1 1.906,-3.494 7.862,7.862 0 0 1 4.984,-1.49 8.032,8.032 0 0 1 5.5,1.906 5.853,5.853 0 0 1 2.175,4.544 H 723.2 a 15.331,15.331 0 0 0 -6.6,-13.07 q -6.6,-4.812 -17.736,-4.813 a 28.589,28.589 0 0 0 -11.311,2.174 18.55,18.55 0 0 0 -7.964,6.108 14.711,14.711 0 0 0 -2.859,8.868 17.866,17.866 0 0 0 1.173,6.84 12.228,12.228 0 0 0 3.665,4.862 22.908,22.908 0 0 0 6.327,3.493 74.55,74.55 0 0 0 9.479,2.785 q 5.643,1.32 7.891,2.876 a 4.8,4.8 0 0 1 2.247,4.134 4.356,4.356 0 0 1 -1.661,3.578 z m 30.2,-1.643 a 8.1,8.1 0 0 0 0,11.824 10.251,10.251 0 0 0 13.021,0.024 8.1,8.1 0 0 0 0,-11.873 10.249,10.249 0 0 0 -13.02,0.03 z M 797.218,453 q 0.193,7.963 -9.43,7.964 -5.523,0 -7.72,-3.611 -2.197,-3.611 -2.2,-12 l 0.049,-4.341 q 0.635,-13.173 9.43,-13.173 4.788,0 7.427,2.247 a 7.516,7.516 0 0 1 2.54,6.254 h 16.466 q -0.831,-9.82 -7.842,-15.513 -7.011,-5.693 -18.591,-5.692 a 26.828,26.828 0 0 0 -13.681,3.42 22.922,22.922 0 0 0 -9.137,9.894 33.405,33.405 0 0 0 -3.225,15.074 v 1.612 q 0,13.681 6.963,21.108 6.963,7.427 19.52,7.426 11.334,0 18.469,-5.619 A 18.982,18.982 0 0 0 813.684,453 Z m 76.44,-10.017 a 30.6,30.6 0 0 0 -3.542,-14.487 24.38,24.38 0 0 0 -9.7,-9.821 28.466,28.466 0 0 0 -14.12,-3.493 28.824,28.824 0 0 0 -14.341,3.518 23.826,23.826 0 0 0 -9.65,9.967 31.5,31.5 0 0 0 -3.371,14.805 v 2 a 31.01,31.01 0 0 0 3.466,14.878 23.814,23.814 0 0 0 9.723,9.894 29.236,29.236 0 0 0 14.267,3.42 28.605,28.605 0 0 0 14.121,-3.469 23.983,23.983 0 0 0 9.7,-9.943 31.088,31.088 0 0 0 3.444,-14.829 v -2.443 z m -16.612,2.834 q -0.1,7.134 -2.932,11.238 a 8.9,8.9 0 0 1 -7.72,4.1 9.022,9.022 0 0 1 -8.159,-4.2 q -2.688,-4.2 -2.688,-11.531 v -1.71 q 0,-15.977 10.75,-15.977 a 9.1,9.1 0 0 1 7.915,4.08 q 2.833,4.08 2.834,11.6 v 2.394 z m 23.965,-29.853 v 56.922 h 16.563 v -8.795 l -1.71,-30.391 13.536,39.183 h 10.65 l 13.534,-39.235 -1.661,30.44 v 8.795 h 16.613 V 415.961 H 926.6 l -11.873,36.3 -11.873,-36.3 h -21.84 z" />
  <path
     id="Muuttopalvelu_Pirkanmaa"
     data-name="Muuttopalvelu Pirkanmaa"
     class="cls-5"
     d="m 233.792,510.406 v 51.188 h 12.34 v -11.953 l -1.195,-24.5 12.41,36.457 h 8.153 l 12.375,-36.422 -1.195,24.469 v 11.953 h 12.375 v -51.192 h -16.24 L 261.425,546.02 250,510.406 Z m 86.431,10.231 v 26.233 q 0,3.3 -1.389,4.723 a 5.889,5.889 0 0 1 -4.377,1.423 6.1,6.1 0 0 1 -4.394,-1.423 q -1.478,-1.422 -1.477,-4.723 v -26.233 h -11.918 v 26.472 a 13.922,13.922 0 0 0 4.8,11 q 4.728,4.044 12.99,4.043 8.4,0 13.043,-4.025 4.643,-4.025 4.641,-11.268 v -26.222 z m 42.134,0 v 26.233 q 0,3.3 -1.389,4.723 a 5.889,5.889 0 0 1 -4.377,1.423 6.1,6.1 0 0 1 -4.394,-1.423 q -1.478,-1.422 -1.477,-4.723 V 520.637 H 338.8 v 26.472 a 13.922,13.922 0 0 0 4.8,11 q 4.728,4.044 12.99,4.043 8.4,0 13.043,-4.025 4.643,-4.025 4.641,-11.268 v -26.222 z m 54.263,0 H 379 v 9.14 h 12.656 v 31.817 h 11.918 v -31.817 h 13.046 z m 40.376,0 h -37.617 v 9.14 h 12.656 v 31.817 h 11.918 V 529.777 H 457 v -9.14 z m 42.8,19.441 a 22.013,22.013 0 0 0 -2.549,-10.424 17.534,17.534 0 0 0 -6.978,-7.066 20.473,20.473 0 0 0 -10.16,-2.514 20.755,20.755 0 0 0 -10.319,2.531 17.15,17.15 0 0 0 -6.943,7.172 22.664,22.664 0 0 0 -2.426,10.653 v 1.441 a 22.312,22.312 0 0 0 2.5,10.705 17.138,17.138 0 0 0 7,7.119 21.041,21.041 0 0 0 10.266,2.461 20.58,20.58 0 0 0 10.16,-2.5 17.26,17.26 0 0 0 6.979,-7.154 22.37,22.37 0 0 0 2.478,-10.67 v -1.758 z m -11.953,2.039 a 14.406,14.406 0 0 1 -2.109,8.086 6.409,6.409 0 0 1 -5.555,2.953 6.493,6.493 0 0 1 -5.871,-3.023 q -1.933,-3.024 -1.934,-8.3 v -1.231 q 0,-11.5 7.735,-11.5 a 6.546,6.546 0 0 1 5.695,2.936 q 2.039,2.935 2.039,8.35 v 1.722 z m 35.63,6.645 q 7.663,-0.141 12.323,-3.867 a 11.776,11.776 0 0 0 4.658,-9.633 13.527,13.527 0 0 0 -2.2,-7.576 14.448,14.448 0 0 0 -6.169,-5.2 21.481,21.481 0 0 0 -9.141,-1.845 h -17.855 v 40.957 h 11.882 v -12.836 h 6.5 z m -6.5,-18.985 h 5.977 a 5.263,5.263 0 0 1 5.66,5.555 3.922,3.922 0 0 1 -1.389,3.059 6.3,6.3 0 0 1 -4.271,1.23 h -5.977 z m 57.674,31.817 h 11.917 L 570.393,520.637 H 559 l -15.855,40.957 h 11.882 l 2.426,-7.172 h 14.66 z m -10.161,-27.985 0.141,-0.7 0.176,0.774 4.465,12.656 h -9.108 z m 37.107,-12.972 h -11.885 v 40.957 h 29.672 v -9.141 h -17.789 v -31.816 z m 28.915,0 h -12.341 l 14.308,40.957 h 13.36 l 14.414,-40.957 h -12.375 l -8.649,29.636 -0.105,0.528 -0.106,-0.668 z m 60.908,15.222 h -16.1 v -6.082 h 19.266 v -9.14 H 663.43 v 40.957 h 30.97 v -9.141 H 675.31 V 545 h 16.1 v -9.141 z m 19.107,-15.222 h -11.885 v 40.957 h 29.672 v -9.141 h -17.789 v -31.816 z m 45.333,0 v 26.233 q 0,3.3 -1.389,4.723 a 5.889,5.889 0 0 1 -4.377,1.423 6.1,6.1 0 0 1 -4.394,-1.423 q -1.477,-1.422 -1.477,-4.723 V 520.637 H 732.3 v 26.472 a 13.918,13.918 0 0 0 4.8,11 q 4.728,4.044 12.99,4.043 8.4,0 13.043,-4.025 4.643,-4.025 4.641,-11.268 v -26.222 h -11.92 z m -420.411,109.99 q 9.351,0 14.713,-4.483 a 14.811,14.811 0 0 0 5.361,-11.971 16.8,16.8 0 0 0 -2.478,-9.052 16.308,16.308 0 0 0 -7,-6.153 23.8,23.8 0 0 0 -10.389,-2.162 H 315.23 v 51.188 h 12.34 v -17.367 z m -7.875,-24.293 h 8.23 a 6.847,6.847 0 0 1 5.273,2.179 8.236,8.236 0 0 1 1.927,5.731 6.664,6.664 0 0 1 -1.881,5.062 7.623,7.623 0 0 1 -5.467,1.793 h -8.082 z m 46.88,0.7 H 362.6 v 40.957 h 11.85 v -40.954 z m 30.955,40.957 h 12.8 v -0.457 l -8.894,-16.242 a 12.837,12.837 0 0 0 5.766,-4.747 13.957,13.957 0 0 0 1.722,-7.312 10.413,10.413 0 0 0 -4.5,-8.982 q -4.5,-3.217 -12.48,-3.217 h -18.11 v 40.957 h 11.883 v -13.568 h 4.676 z m -11.813,-31.817 h 5.871 q 5.484,0 5.485,4.465 0,4.641 -5.133,4.641 h -6.223 z m 53.736,31.817 h 13.957 L 447.468,625.28 461.25,607.034 h -14.942 l -10.9,16.207 v -16.204 h -11.881 v 40.957 h 11.883 v -10.547 l 0.14,0.457 3.868,-3.832 z m 44.946,0 h 11.918 L 488.02,607.037 h -11.39 l -15.856,40.957 h 11.883 l 2.426,-7.172 h 14.66 z m -10.16,-27.985 0.141,-0.7 0.176,0.774 4.464,12.656 h -9.1 z m 62.771,-12.972 h -11.848 v 23.836 l -13.816,-23.836 h -11.883 v 40.957 h 11.883 v -23.833 l 13.816,23.836 h 11.848 v -40.957 z m 6.415,0 v 40.957 h 11.918 v -6.328 l -1.23,-21.868 9.738,28.2 h 7.664 l 9.738,-28.231 -1.2,21.9 v 6.328 h 11.953 V 607.037 H 584.1 l -8.543,26.121 -8.543,-26.121 H 551.3 Z m 83.267,40.957 h 11.918 l -16.172,-40.957 h -11.39 l -15.856,40.957 h 11.883 l 2.426,-7.172 h 14.66 z m -10.16,-27.985 0.141,-0.7 0.175,0.774 4.465,12.656 h -9.105 z m 53.454,27.985 h 11.918 l -16.172,-40.957 h -11.39 l -15.856,40.957 h 11.883 l 2.426,-7.172 h 14.66 z m -10.161,-27.982 0.141,-0.7 0.176,0.774 4.464,12.656 h -9.105 z"
     style="display:none" />
  <path
     id="Tehty_2022"
     data-name="Tehty                 2022"
     class="cls-6"
     d="m 240.8,193.39 h -25.39 v 5.654 h 8.95 v 24.722 h 7.323 v -24.722 h 9.117 z m 19.519,15.11 h -9.555 v -3.61 H 262.2 v -5.424 h -18.488 v 24.3 h 18.38 v -5.424 h -11.328 v -4.423 h 9.555 z m 26.589,-9.034 H 279.9 v 9.7 h -8.241 v -9.7 h -7.051 v 24.3 h 7.051 v -9.179 h 8.241 v 9.179 h 7.01 v -24.3 z m 25.024,0 h -22.323 v 5.424 h 7.511 v 18.881 h 7.072 v -18.886 h 7.74 v -5.424 z m 8.689,0 h -7.552 l 8.262,15.522 v 8.783 h 7.051 v -8.533 l 8.429,-15.772 h -7.573 L 324.9,209.1 Z m 387.089,18.876 h -11.954 l 3.922,-4.527 a 52.427,52.427 0 0 0 4.538,-5 15.365,15.365 0 0 0 2.076,-3.567 9.488,9.488 0 0 0 0.667,-3.5 8.117,8.117 0 0 0 -2.66,-6.53 q -2.659,-2.274 -7.583,-2.274 a 11.529,11.529 0 0 0 -5.55,1.335 9.8,9.8 0 0 0 -3.88,3.7 9.977,9.977 0 0 0 -1.4,5.164 h 7.051 a 5.614,5.614 0 0 1 1,-3.411 3.092,3.092 0 0 1 2.608,-1.367 3.051,3.051 0 0 1 2.482,1.023 4.536,4.536 0 0 1 0.856,2.983 q 0,2.419 -3.61,6.53 l -9.763,10.264 v 4.59 h 21.2 v -5.424 z m 25.066,-12.518 q 0,-6.133 -2.774,-9.492 a 10.8,10.8 0 0 0 -15.637,-0.021 q -2.764,3.338 -2.764,9.492 v 5.55 q 0,6.112 2.774,9.472 a 10.8,10.8 0 0 0 15.637,0.02 q 2.765,-3.338 2.764,-9.492 z m -7.03,6.593 a 10.412,10.412 0 0 1 -0.877,4.809 2.831,2.831 0 0 1 -2.649,1.533 2.869,2.869 0 0 1 -2.712,-1.575 10.905,10.905 0 0 1 -0.856,-4.976 v -7.761 a 10.2,10.2 0 0 1 0.887,-4.548 2.791,2.791 0 0 1 2.639,-1.5 2.859,2.859 0 0 1 2.712,1.617 10.837,10.837 0 0 1 0.856,4.892 v 7.511 z m 32.305,5.925 H 746.1 l 3.922,-4.527 a 52.427,52.427 0 0 0 4.538,-5 15.365,15.365 0 0 0 2.076,-3.567 9.488,9.488 0 0 0 0.667,-3.5 8.117,8.117 0 0 0 -2.66,-6.53 q -2.66,-2.274 -7.583,-2.274 a 11.529,11.529 0 0 0 -5.55,1.335 9.8,9.8 0 0 0 -3.88,3.7 9.977,9.977 0 0 0 -1.4,5.164 h 7.051 a 5.614,5.614 0 0 1 1,-3.411 3.091,3.091 0 0 1 2.608,-1.367 3.051,3.051 0 0 1 2.482,1.023 4.542,4.542 0 0 1 0.856,2.983 q 0,2.419 -3.61,6.53 l -9.763,10.264 v 4.59 h 21.2 v -5.424 z m 25.171,0 h -11.955 l 3.923,-4.527 a 52.388,52.388 0 0 0 4.537,-5 15.329,15.329 0 0 0 2.076,-3.567 9.489,9.489 0 0 0 0.668,-3.5 8.12,8.12 0 0 0 -2.66,-6.53 q -2.661,-2.274 -7.584,-2.274 a 11.528,11.528 0 0 0 -5.549,1.335 9.8,9.8 0 0 0 -3.881,3.7 9.977,9.977 0 0 0 -1.4,5.164 h 7.052 a 5.62,5.62 0 0 1 1,-3.411 3.093,3.093 0 0 1 2.608,-1.367 3.054,3.054 0 0 1 2.483,1.023 4.542,4.542 0 0 1 0.855,2.983 q 0,2.419 -3.609,6.53 l -9.764,10.264 v 4.59 h 21.2 v -5.424 z" />
  <text
     xml:space="preserve"
     style="font-style:normal;font-variant:normal;font-weight:900;font-stretch:normal;font-size:74.6667px;font-family:Roboto;-inkscape-font-specification:'Roboto Heavy';text-align:center;letter-spacing:0px;text-anchor:middle;display:inline;fill:#ff0000;fill-opacity:1;stroke-width:68.5077;stroke-linecap:round;stroke-linejoin:round;stroke-miterlimit:1.4;stroke-dashoffset:751.073;paint-order:stroke fill markers"
     x="499.33939"
     y="555.72974"
     id="text848"
     inkscape:label="text848"><tspan
       sodipodi:role="line"
       id="tspan846"
       x="499.33939"
       y="555.72974"
       style="font-style:normal;font-variant:normal;font-weight:900;font-stretch:normal;font-size:74.6667px;font-family:Heebo;-inkscape-font-specification:'Heebo Heavy';fill:#ff0000;fill-opacity:1"
       dy="6">M<tspan
   style="font-size:64px;fill:#ff0000;fill-opacity:1"
   id="tspan1064">UUTTOPALVELU</tspan></tspan><tspan
       sodipodi:role="line"
       x="499.33939"
       y="651.79364"
       style="font-style:normal;font-variant:normal;font-weight:900;font-stretch:normal;font-size:74.6667px;font-family:Heebo;-inkscape-font-specification:'Heebo Heavy';fill:#ff0000;fill-opacity:1"
       id="tspan1061">P<tspan
   style="font-size:64px;fill:#ff0000;fill-opacity:1"
   id="tspan1051">OHJANMAA</tspan></tspan></text>
</svg>
